<mxfile host="Electron" agent="Mozilla/5.0 (Macintosh; Intel Mac OS X 10_15_7) AppleWebKit/537.36 (KHTML, like Gecko) draw.io/26.2.2 Chrome/134.0.6998.178 Electron/35.1.2 Safari/537.36" version="26.2.2">
  <diagram name="Page-1" id="cn3roxlYLHje-66BmGvv">
    <mxGraphModel dx="2854" dy="914" grid="1" gridSize="10" guides="1" tooltips="1" connect="1" arrows="1" fold="1" page="1" pageScale="1" pageWidth="827" pageHeight="1169" math="0" shadow="0">
      <root>
        <mxCell id="0" />
        <mxCell id="1" parent="0" />
        <mxCell id="zNSaN-DV0r8oWl_BFErQ-13" value="" style="rounded=0;whiteSpace=wrap;html=1;dashed=1;" vertex="1" parent="1">
          <mxGeometry x="-730" y="650" width="515" height="190" as="geometry" />
        </mxCell>
        <mxCell id="zNSaN-DV0r8oWl_BFErQ-14" value="&lt;h2&gt;&lt;font style=&quot;color: rgb(0, 153, 0);&quot;&gt;Server3&lt;/font&gt;&lt;/h2&gt;" style="text;html=1;align=center;verticalAlign=middle;resizable=0;points=[];autosize=1;strokeColor=none;fillColor=none;" vertex="1" parent="1">
          <mxGeometry x="-730" y="650" width="90" height="60" as="geometry" />
        </mxCell>
        <mxCell id="zNSaN-DV0r8oWl_BFErQ-5" value="" style="rounded=0;whiteSpace=wrap;html=1;dashed=1;" vertex="1" parent="1">
          <mxGeometry x="-730" y="410" width="515" height="190" as="geometry" />
        </mxCell>
        <mxCell id="zNSaN-DV0r8oWl_BFErQ-18" style="edgeStyle=orthogonalEdgeStyle;rounded=0;orthogonalLoop=1;jettySize=auto;html=1;strokeWidth=2;startArrow=classic;startFill=1;exitX=0.5;exitY=0;exitDx=0;exitDy=0;" edge="1" parent="1" source="zNSaN-DV0r8oWl_BFErQ-21" target="O649I8jBoJ1cIQnpVF6j-7">
          <mxGeometry relative="1" as="geometry" />
        </mxCell>
        <mxCell id="O649I8jBoJ1cIQnpVF6j-1" value="" style="rounded=0;whiteSpace=wrap;html=1;fillColor=#e1d5e7;strokeColor=#9673a6;" parent="1" vertex="1">
          <mxGeometry x="-1340" y="380" width="250" height="244" as="geometry" />
        </mxCell>
        <mxCell id="O649I8jBoJ1cIQnpVF6j-2" value="&lt;font style=&quot;font-size: 17px;&quot;&gt;MCP Client&lt;/font&gt;" style="rounded=1;whiteSpace=wrap;html=1;fillColor=#dae8fc;strokeColor=#6c8ebf;" parent="1" vertex="1">
          <mxGeometry x="-1285" y="500" width="120" height="60" as="geometry" />
        </mxCell>
        <mxCell id="O649I8jBoJ1cIQnpVF6j-3" value="&lt;font style=&quot;font-size: 17px;&quot;&gt;Host&lt;/font&gt;&lt;div&gt;&lt;font style=&quot;font-size: 17px;&quot;&gt;(LLM,&amp;nbsp;&lt;/font&gt;&lt;span style=&quot;font-size: 17px; background-color: transparent; color: light-dark(rgb(0, 0, 0), rgb(255, 255, 255));&quot;&gt;Claude,&amp;nbsp;&lt;/span&gt;&lt;/div&gt;&lt;div&gt;&lt;font style=&quot;font-size: 17px;&quot;&gt;Cursor IDE)&lt;/font&gt;&lt;/div&gt;" style="text;html=1;align=center;verticalAlign=middle;resizable=0;points=[];autosize=1;strokeColor=none;fillColor=none;" parent="1" vertex="1">
          <mxGeometry x="-1285" y="380" width="140" height="70" as="geometry" />
        </mxCell>
        <mxCell id="O649I8jBoJ1cIQnpVF6j-7" value="&lt;font style=&quot;font-size: 17px;&quot;&gt;MCP-memory-server B&lt;/font&gt;" style="rounded=1;whiteSpace=wrap;html=1;fillColor=#dae8fc;strokeColor=#6c8ebf;container=1;" parent="1" vertex="1">
          <mxGeometry x="-705" y="500" width="185" height="60" as="geometry" />
        </mxCell>
        <mxCell id="O649I8jBoJ1cIQnpVF6j-8" value="&lt;font style=&quot;font-size: 17px;&quot;&gt;MCP Server C&lt;/font&gt;" style="rounded=1;whiteSpace=wrap;html=1;fillColor=#dae8fc;strokeColor=#6c8ebf;" parent="1" vertex="1">
          <mxGeometry x="-705" y="750" width="130" height="60" as="geometry" />
        </mxCell>
        <mxCell id="O649I8jBoJ1cIQnpVF6j-11" value="&lt;font style=&quot;font-size: 17px;&quot;&gt;Data Source B&lt;/font&gt;" style="shape=cylinder3;whiteSpace=wrap;html=1;boundedLbl=1;backgroundOutline=1;size=15;fillColor=#f5f5f5;strokeColor=#666666;fontColor=#333333;" parent="1" vertex="1">
          <mxGeometry x="-375" y="490" width="130" height="80" as="geometry" />
        </mxCell>
        <mxCell id="O649I8jBoJ1cIQnpVF6j-12" value="&lt;font style=&quot;font-size: 17px;&quot;&gt;Internet&lt;/font&gt;&lt;div&gt;&lt;font style=&quot;font-size: 17px;&quot;&gt;Service C&lt;/font&gt;&lt;/div&gt;" style="ellipse;shape=cloud;whiteSpace=wrap;html=1;fillColor=#f5f5f5;fontColor=#333333;strokeColor=#666666;" parent="1" vertex="1">
          <mxGeometry x="-405" y="720" width="190" height="110" as="geometry" />
        </mxCell>
        <mxCell id="O649I8jBoJ1cIQnpVF6j-14" value="&lt;font style=&quot;font-size: 15px;&quot;&gt;Web APIs&lt;/font&gt;" style="text;html=1;align=center;verticalAlign=middle;resizable=0;points=[];autosize=1;strokeColor=none;fillColor=none;" parent="1" vertex="1">
          <mxGeometry x="-508" y="730" width="90" height="30" as="geometry" />
        </mxCell>
        <mxCell id="O649I8jBoJ1cIQnpVF6j-25" style="edgeStyle=orthogonalEdgeStyle;rounded=0;orthogonalLoop=1;jettySize=auto;html=1;entryX=0;entryY=0.5;entryDx=0;entryDy=0;startArrow=classic;startFill=1;strokeWidth=2;" parent="1" source="O649I8jBoJ1cIQnpVF6j-22" target="O649I8jBoJ1cIQnpVF6j-1" edge="1">
          <mxGeometry relative="1" as="geometry" />
        </mxCell>
        <mxCell id="O649I8jBoJ1cIQnpVF6j-22" value="Client" style="shape=umlActor;verticalLabelPosition=bottom;verticalAlign=top;html=1;outlineConnect=0;fillColor=#fff2cc;strokeColor=default;" parent="1" vertex="1">
          <mxGeometry x="-1570" y="457" width="50" height="90" as="geometry" />
        </mxCell>
        <mxCell id="O649I8jBoJ1cIQnpVF6j-28" value="&lt;span style=&quot;font-size: 15px;&quot;&gt;JSON-RPC 2&lt;/span&gt;" style="text;html=1;align=center;verticalAlign=middle;resizable=0;points=[];autosize=1;strokeColor=#666666;fillColor=#f5f5f5;rotation=0;rounded=1;fontColor=#333333;arcSize=50;" parent="1" vertex="1">
          <mxGeometry x="-965" y="510" width="110" height="30" as="geometry" />
        </mxCell>
        <mxCell id="O649I8jBoJ1cIQnpVF6j-34" value="" style="curved=1;endArrow=classic;html=1;rounded=0;exitX=1;exitY=0.5;exitDx=0;exitDy=0;entryX=0.07;entryY=0.4;entryDx=0;entryDy=0;entryPerimeter=0;startArrow=classic;startFill=1;strokeWidth=2;" parent="1" source="O649I8jBoJ1cIQnpVF6j-8" target="O649I8jBoJ1cIQnpVF6j-12" edge="1">
          <mxGeometry width="50" height="50" relative="1" as="geometry">
            <mxPoint x="-510" y="800" as="sourcePoint" />
            <mxPoint x="-460" y="750" as="targetPoint" />
            <Array as="points">
              <mxPoint x="-460" y="800" />
              <mxPoint x="-510" y="750" />
            </Array>
          </mxGeometry>
        </mxCell>
        <mxCell id="O649I8jBoJ1cIQnpVF6j-36" style="edgeStyle=orthogonalEdgeStyle;rounded=0;orthogonalLoop=1;jettySize=auto;html=1;entryX=0;entryY=0.5;entryDx=0;entryDy=0;entryPerimeter=0;startArrow=classic;startFill=1;strokeWidth=2;" parent="1" source="O649I8jBoJ1cIQnpVF6j-7" target="O649I8jBoJ1cIQnpVF6j-11" edge="1">
          <mxGeometry relative="1" as="geometry" />
        </mxCell>
        <mxCell id="zNSaN-DV0r8oWl_BFErQ-6" value="&lt;h2&gt;&lt;font style=&quot;color: rgb(0, 153, 0);&quot;&gt;Server2&lt;/font&gt;&lt;/h2&gt;" style="text;html=1;align=center;verticalAlign=middle;resizable=0;points=[];autosize=1;strokeColor=none;fillColor=none;" vertex="1" parent="1">
          <mxGeometry x="-730" y="410" width="90" height="60" as="geometry" />
        </mxCell>
        <mxCell id="zNSaN-DV0r8oWl_BFErQ-8" value="" style="rounded=0;whiteSpace=wrap;html=1;dashed=1;" vertex="1" parent="1">
          <mxGeometry x="-730" y="180" width="515" height="190" as="geometry" />
        </mxCell>
        <mxCell id="zNSaN-DV0r8oWl_BFErQ-9" value="&lt;font style=&quot;font-size: 17px;&quot;&gt;MCP Server A&lt;/font&gt;" style="rounded=1;whiteSpace=wrap;html=1;fillColor=#dae8fc;strokeColor=#6c8ebf;" vertex="1" parent="1">
          <mxGeometry x="-705" y="270" width="130" height="60" as="geometry" />
        </mxCell>
        <mxCell id="zNSaN-DV0r8oWl_BFErQ-10" value="&lt;font style=&quot;font-size: 17px;&quot;&gt;Data Source A&lt;/font&gt;" style="shape=cylinder3;whiteSpace=wrap;html=1;boundedLbl=1;backgroundOutline=1;size=15;fillColor=#f5f5f5;strokeColor=#666666;fontColor=#333333;" vertex="1" parent="1">
          <mxGeometry x="-375" y="260" width="130" height="80" as="geometry" />
        </mxCell>
        <mxCell id="zNSaN-DV0r8oWl_BFErQ-11" style="edgeStyle=orthogonalEdgeStyle;rounded=0;orthogonalLoop=1;jettySize=auto;html=1;entryX=0;entryY=0.5;entryDx=0;entryDy=0;entryPerimeter=0;startArrow=classic;startFill=1;strokeWidth=2;" edge="1" parent="1" source="zNSaN-DV0r8oWl_BFErQ-9" target="zNSaN-DV0r8oWl_BFErQ-10">
          <mxGeometry relative="1" as="geometry" />
        </mxCell>
        <mxCell id="zNSaN-DV0r8oWl_BFErQ-12" value="&lt;h2&gt;&lt;font style=&quot;color: rgb(0, 153, 0);&quot;&gt;Server1&lt;/font&gt;&lt;/h2&gt;" style="text;html=1;align=center;verticalAlign=middle;resizable=0;points=[];autosize=1;strokeColor=none;fillColor=none;" vertex="1" parent="1">
          <mxGeometry x="-730" y="180" width="90" height="60" as="geometry" />
        </mxCell>
        <mxCell id="zNSaN-DV0r8oWl_BFErQ-16" value="" style="curved=1;endArrow=classic;html=1;rounded=0;entryX=0;entryY=0.5;entryDx=0;entryDy=0;exitX=0.25;exitY=0;exitDx=0;exitDy=0;startArrow=classic;startFill=1;strokeWidth=2;" edge="1" parent="1" source="zNSaN-DV0r8oWl_BFErQ-21" target="zNSaN-DV0r8oWl_BFErQ-9">
          <mxGeometry width="50" height="50" relative="1" as="geometry">
            <mxPoint x="-920" y="325" as="sourcePoint" />
            <mxPoint x="-870" y="275" as="targetPoint" />
            <Array as="points">
              <mxPoint x="-920" y="460" />
              <mxPoint x="-1020" y="335" />
              <mxPoint x="-970" y="335" />
              <mxPoint x="-910" y="305" />
            </Array>
          </mxGeometry>
        </mxCell>
        <mxCell id="O649I8jBoJ1cIQnpVF6j-17" value="&lt;div&gt;&lt;span style=&quot;font-size: 15px;&quot;&gt;JSON-RPC 2&lt;/span&gt;&lt;/div&gt;" style="text;html=1;align=center;verticalAlign=middle;resizable=0;points=[];autosize=1;strokeColor=#666666;fillColor=#f5f5f5;rotation=355;rounded=1;fontColor=#333333;arcSize=50;" parent="1" vertex="1">
          <mxGeometry x="-1050" y="320" width="110" height="30" as="geometry" />
        </mxCell>
        <mxCell id="zNSaN-DV0r8oWl_BFErQ-19" value="" style="curved=1;endArrow=classic;html=1;rounded=0;entryX=0;entryY=0.5;entryDx=0;entryDy=0;exitX=0.75;exitY=0;exitDx=0;exitDy=0;strokeWidth=2;startArrow=classic;startFill=1;" edge="1" parent="1" source="O649I8jBoJ1cIQnpVF6j-31" target="O649I8jBoJ1cIQnpVF6j-8">
          <mxGeometry width="50" height="50" relative="1" as="geometry">
            <mxPoint x="-940" y="735" as="sourcePoint" />
            <mxPoint x="-890" y="685" as="targetPoint" />
            <Array as="points" />
          </mxGeometry>
        </mxCell>
        <mxCell id="zNSaN-DV0r8oWl_BFErQ-21" value="&lt;font style=&quot;font-size: 18px;&quot;&gt;sse transport&lt;/font&gt;" style="rounded=1;whiteSpace=wrap;html=1;rotation=90;" vertex="1" parent="1">
          <mxGeometry x="-1150" y="516.5" width="120" height="25" as="geometry" />
        </mxCell>
        <mxCell id="zNSaN-DV0r8oWl_BFErQ-22" value="" style="curved=1;endArrow=classic;html=1;rounded=0;entryX=0;entryY=0.5;entryDx=0;entryDy=0;exitX=0.75;exitY=0;exitDx=0;exitDy=0;strokeWidth=2;startArrow=classic;startFill=1;" edge="1" parent="1" source="zNSaN-DV0r8oWl_BFErQ-21" target="O649I8jBoJ1cIQnpVF6j-31">
          <mxGeometry width="50" height="50" relative="1" as="geometry">
            <mxPoint x="-1077" y="559" as="sourcePoint" />
            <mxPoint x="-705" y="780" as="targetPoint" />
            <Array as="points">
              <mxPoint x="-990" y="590" />
              <mxPoint x="-965" y="670" />
              <mxPoint x="-870" y="680" />
            </Array>
          </mxGeometry>
        </mxCell>
        <mxCell id="O649I8jBoJ1cIQnpVF6j-31" value="&lt;span style=&quot;font-size: 15px;&quot;&gt;JSON-RPC 2&lt;/span&gt;" style="text;html=1;align=center;verticalAlign=middle;resizable=0;points=[];autosize=1;strokeColor=#666666;fillColor=#f5f5f5;rotation=0;rounded=1;fontColor=#333333;arcSize=50;" parent="1" vertex="1">
          <mxGeometry x="-965" y="680" width="110" height="30" as="geometry" />
        </mxCell>
        <mxCell id="zNSaN-DV0r8oWl_BFErQ-24" value="" style="endArrow=classic;startArrow=classic;html=1;rounded=0;entryX=0.5;entryY=1;entryDx=0;entryDy=0;exitX=1;exitY=0.5;exitDx=0;exitDy=0;" edge="1" parent="1" source="O649I8jBoJ1cIQnpVF6j-2" target="zNSaN-DV0r8oWl_BFErQ-21">
          <mxGeometry width="50" height="50" relative="1" as="geometry">
            <mxPoint x="-1155" y="570" as="sourcePoint" />
            <mxPoint x="-1105" y="520" as="targetPoint" />
          </mxGeometry>
        </mxCell>
        <mxCell id="zNSaN-DV0r8oWl_BFErQ-25" value="MCP" style="text;html=1;align=center;verticalAlign=middle;resizable=0;points=[];autosize=1;strokeColor=none;fillColor=none;" vertex="1" parent="1">
          <mxGeometry x="-1160" y="500" width="50" height="30" as="geometry" />
        </mxCell>
      </root>
    </mxGraphModel>
  </diagram>
</mxfile>
